<?xml version="1.0" encoding="UTF-8"?>
<svg xmlns="http://www.w3.org/2000/svg" xmlns:xlink="http://www.w3.org/1999/xlink" width="30px" height="30px" viewBox="0 0 30 30" version="1.1">
<g id="surface1">
<path style=" stroke:none;fill-rule:nonzero;fill:rgb(0%,0%,0%);fill-opacity:1;" d="M 22.308594 19.195312 L 25.980469 4.824219 L 29.996094 4.824219 L 29.996094 2.566406 L 24.226562 2.566406 L 23.359375 5.953125 L 0 5.9375 L 2.484375 19.195312 Z M 22.78125 8.210938 L 20.554688 16.9375 L 4.359375 16.9375 L 2.722656 8.199219 Z M 22.78125 8.210938 "/>
<path style=" stroke:none;fill-rule:nonzero;fill:rgb(0%,0%,0%);fill-opacity:1;" d="M 19.214844 27.429688 C 21.207031 27.429688 22.828125 25.808594 22.828125 23.816406 C 22.828125 21.824219 21.207031 20.203125 19.214844 20.203125 L 5.605469 20.203125 C 3.613281 20.203125 1.992188 21.824219 1.992188 23.816406 C 1.992188 25.808594 3.613281 27.429688 5.605469 27.429688 C 7.597656 27.429688 9.21875 25.808594 9.21875 23.816406 C 9.21875 23.339844 9.125 22.882812 8.953125 22.464844 L 15.867188 22.464844 C 15.699219 22.882812 15.605469 23.339844 15.605469 23.816406 C 15.605469 25.808594 17.222656 27.429688 19.214844 27.429688 Z M 6.957031 23.816406 C 6.957031 24.5625 6.351562 25.171875 5.605469 25.171875 C 4.859375 25.171875 4.25 24.5625 4.25 23.816406 C 4.25 23.070312 4.859375 22.464844 5.605469 22.464844 C 6.351562 22.464844 6.957031 23.070312 6.957031 23.816406 Z M 20.570312 23.816406 C 20.570312 24.5625 19.964844 25.171875 19.214844 25.171875 C 18.46875 25.171875 17.863281 24.5625 17.863281 23.816406 C 17.863281 23.070312 18.46875 22.464844 19.214844 22.464844 C 19.964844 22.464844 20.570312 23.070312 20.570312 23.816406 Z M 20.570312 23.816406 "/>
</g>
</svg>
